<svg xmlns="http://www.w3.org/2000/svg" width="283.46" height="178.085" viewBox="0 54.933 283.46 178.085"><g fill="#999"><path d="M134.057 108.199c-6.939 0-10.983-3.724-15.119-8.733l-6.848 6.848c2.16 2.206 4.596 4.457 7.169 6.848 3.861 3.308 8.64 5.009 14.385 5.009 5.331 0 10.064-1.93 14.248-5.745 4.184-3.813 6.249-8.41 6.249-13.695 0-1.241-.138-2.849-.462-4.182-.412-1.884-.871-2.987-1.284-3.814-.967-2.298-2.987-4.504-6.021-6.71a31.607 31.607 0 0 0-8.088-4.228c-4.504-1.655-6.939-2.528-7.261-2.711-2.896-1.517-4.321-3.493-4.321-5.883 0-1.975.92-3.538 2.758-4.732 1.654-1.104 3.447-1.609 5.469-1.609 3.769 0 7.354 1.287 10.8 3.906l6.25-7.17c-3.676-4.32-9.237-6.433-16.636-6.433-4.964 0-9.329 1.378-13.052 4.089-4.136 3.034-6.204 6.985-6.204 11.812 0 5.515 2.389 9.79 7.124 12.914 4.411 2.022 8.823 4.045 13.236 6.113 4.733 2.252 7.123 5.009 7.123 8.318 0 2.757-.873 5.102-2.62 6.986-1.84 1.883-4.092 2.802-6.895 2.802zM11.029 79.061c0-7.215 5.882-13.097 13.097-13.097s13.098 5.882 13.098 13.097v39.063h11.03V79.061c0-7.215 5.883-13.097 13.097-13.097 7.215 0 13.098 5.882 13.098 13.097v39.063h11.03V79.061c0-13.281-10.846-24.127-24.128-24.127-7.491 0-14.2 3.447-18.613 8.777a24.004 24.004 0 0 0-18.613-8.777C10.845 54.934 0 65.78 0 79.061v39.063h11.03l-.001-39.063zM94.671 54.934h11.03v63.19h-11.03zM170.685 118.125h11.027V65.964h11.996v-11.03h-34.927v11.03h11.904zM231.854 118.125v-11.029h-17.922V90.781h16.543V79.75h-16.543V65.964h17.922v-11.03h-28.953v63.191h11.031zM252.076 101.81h2.527c1.7 0 3.4-.184 5.008-.459l10.756 16.773h13.098l-13.604-21.232c5.377-4.045 8.87-10.34 8.87-17.832 0-13.281-10.847-24.127-24.128-24.127h-13.557v63.19h11.029V101.81h.001zm2.527-35.846c7.216 0 13.098 5.882 13.098 13.097 0 7.216-5.882 11.72-13.098 11.72h-2.527V65.964h2.527z"/></g><g fill="#E94F2D"><path d="M14.659 182.375h34.882v29.045h14.661v-51.979c0-17.694-14.385-32.125-32.125-32.125C14.337 127.316 0 141.747 0 159.441v51.979h14.66l-.001-29.045zm17.419-40.353c9.605 0 17.418 7.813 17.418 17.419v8.271H14.659v-8.271c0-9.606 7.813-17.419 17.419-17.419zM108.551 211.462c17.693 0 32.124-14.383 32.124-32.123v-51.978h-14.66v51.978c0 9.605-7.813 17.42-17.417 17.42-9.605 0-17.418-7.813-17.418-17.42v-51.978H76.519v51.978c-.092 17.696 14.338 32.123 32.032 32.123zM168.8 211.462h14.66v-69.44h15.903v-14.66h-46.464v14.66H168.8zM241.414 211.144c23.209 0 42.051-18.842 42.051-42.053 0-23.207-18.842-42.05-42.051-42.05s-42.051 18.843-42.051 42.05c0 23.211 18.888 42.053 42.051 42.053zm.321-69.122c15.074 0 27.392 12.271 27.392 27.392s-12.271 27.392-27.392 27.392c-15.073 0-27.39-12.271-27.39-27.392 0-15.12 12.317-27.392 27.39-27.392z"/></g><path fill="#E94F2D" d="M-.331 222.035h283.792v10.983H-.331z"/></svg>